<mxfile host="drawio-plugin" modified="2022-05-11T07:09:30.201Z" agent="5.0 (Windows NT 6.2; Win64; x64) AppleWebKit/537.36 (KHTML, like Gecko) Chrome/97.0.4692.45 Safari/537.36" etag="w4px-BqEwidYG1y33Ht6" version="15.5.4" type="embed"><diagram id="S7tx9J3fLc1WbCSrQPnB" name="Page-1"><mxGraphModel dx="1149" dy="619" grid="1" gridSize="10" guides="1" tooltips="1" connect="1" arrows="1" fold="1" page="1" pageScale="1" pageWidth="850" pageHeight="1100" math="0" shadow="0"><root><mxCell id="0"/><mxCell id="1" parent="0"/><mxCell id="2" value="id: &quot;int&quot;&lt;br&gt;label: &quot;string&quot;&lt;br&gt;slug: &quot;string&quot;&lt;br&gt;parent: &quot;int&quot;&lt;br&gt;id_image: &quot;int&quot;" style="whiteSpace=wrap;html=1;aspect=fixed;align=left;" parent="1" vertex="1"><mxGeometry x="340" y="20" width="170" height="170" as="geometry"/></mxCell><mxCell id="3" value="&lt;font style=&quot;font-size: 20px&quot;&gt;category&lt;/font&gt;" style="rounded=0;whiteSpace=wrap;html=1;" parent="1" vertex="1"><mxGeometry x="340" y="20" width="170" height="40" as="geometry"/></mxCell><mxCell id="4" value="id: &quot;int&quot;&lt;br&gt;id_category: &quot;int&quot;&lt;br&gt;title_id: &quot;string&quot;&lt;br&gt;id_content: &quot;text&quot;&lt;br&gt;id_description: &quot;text&quot;&lt;br&gt;id_image: &quot;int&quot;&lt;br&gt;slug: &quot;string&quot;" style="whiteSpace=wrap;html=1;aspect=fixed;align=left;" parent="1" vertex="1"><mxGeometry x="340" y="310.98" width="200" height="200" as="geometry"/></mxCell><mxCell id="5" value="page" style="rounded=0;whiteSpace=wrap;html=1;fontSize=20;align=center;" parent="1" vertex="1"><mxGeometry x="340" y="310.98" width="200" height="40" as="geometry"/></mxCell><mxCell id="6" value="" style="endArrow=classic;html=1;rounded=0;fontSize=20;exitX=-0.008;exitY=0.701;exitDx=0;exitDy=0;exitPerimeter=0;" parent="1" source="2" edge="1"><mxGeometry relative="1" as="geometry"><mxPoint x="310" y="140.98" as="sourcePoint"/><mxPoint x="339" y="390" as="targetPoint"/><Array as="points"><mxPoint x="320" y="139"/><mxPoint x="320" y="390"/></Array></mxGeometry></mxCell><mxCell id="7" value="&lt;font style=&quot;font-size: 11px&quot;&gt;Many To Many&lt;/font&gt;" style="edgeLabel;resizable=0;html=1;align=center;verticalAlign=middle;fontSize=20;" parent="6" connectable="0" vertex="1"><mxGeometry relative="1" as="geometry"/></mxCell><mxCell id="10" value="id: &quot;int&quot;&lt;br&gt;id_page&lt;br&gt;title: &quot;string&quot;&lt;br&gt;content: &quot;text&quot;&lt;br&gt;created_at: &quot;datetime&quot;&lt;br&gt;updated_at: &quot;datetime&quot; NULL&lt;br&gt;id_user: &quot;int&quot;" style="whiteSpace=wrap;html=1;align=left;" parent="1" vertex="1"><mxGeometry x="680" y="290.98" width="160" height="220" as="geometry"/></mxCell><mxCell id="11" value="article" style="rounded=0;whiteSpace=wrap;html=1;fontSize=20;align=center;" parent="1" vertex="1"><mxGeometry x="680" y="290.98" width="160" height="40" as="geometry"/></mxCell><mxCell id="12" value="id: &quot;int&quot;&lt;br&gt;name: string&lt;br&gt;alt: string&lt;br&gt;id_article: int NULL" style="whiteSpace=wrap;html=1;align=left;" parent="1" vertex="1"><mxGeometry x="30" y="340.98" width="130" height="170" as="geometry"/></mxCell><mxCell id="13" value="image" style="rounded=0;whiteSpace=wrap;html=1;fontSize=20;align=center;" parent="1" vertex="1"><mxGeometry x="30" y="340.98" width="130" height="40" as="geometry"/></mxCell><mxCell id="14" value="" style="endArrow=classic;html=1;rounded=0;fontSize=11;exitX=1;exitY=0.704;exitDx=0;exitDy=0;entryX=0;entryY=0.75;entryDx=0;entryDy=0;exitPerimeter=0;" parent="1" source="12" edge="1" target="4"><mxGeometry relative="1" as="geometry"><mxPoint x="250" y="395.98" as="sourcePoint"/><mxPoint x="340" y="395.56" as="targetPoint"/></mxGeometry></mxCell><mxCell id="15" value="Many To Many" style="edgeLabel;resizable=0;html=1;align=center;verticalAlign=middle;fontSize=11;" parent="14" connectable="0" vertex="1"><mxGeometry relative="1" as="geometry"/></mxCell><mxCell id="28" value="id: &quot;int&quot;&lt;br&gt;first_name: string&lt;br&gt;last_name: &quot;string&quot;&lt;br&gt;username: &quot;string&quot;&lt;br&gt;birthday_date: &quot;date&quot; NULL&lt;br&gt;email: &quot;string&quot;&lt;br&gt;password: &quot;string&quot;&lt;br&gt;role: &quot;json&quot;&lt;br&gt;id_image : &quot;int&quot;" style="whiteSpace=wrap;html=1;aspect=fixed;align=left;" parent="1" vertex="1"><mxGeometry x="30" y="20" width="220" height="220" as="geometry"/></mxCell><mxCell id="29" value="user" style="rounded=0;whiteSpace=wrap;html=1;fontSize=20;align=center;" parent="1" vertex="1"><mxGeometry x="30" y="20" width="220" height="40" as="geometry"/></mxCell><mxCell id="33" value="" style="endArrow=classic;html=1;rounded=0;fontSize=11;" parent="1" edge="1"><mxGeometry relative="1" as="geometry"><mxPoint x="120" y="340" as="sourcePoint"/><mxPoint x="120" y="240" as="targetPoint"/></mxGeometry></mxCell><mxCell id="34" value="Many To Many" style="edgeLabel;resizable=0;html=1;align=center;verticalAlign=middle;fontSize=11;" parent="33" connectable="0" vertex="1"><mxGeometry relative="1" as="geometry"><mxPoint y="8" as="offset"/></mxGeometry></mxCell><mxCell id="35" value="" style="endArrow=classic;html=1;rounded=0;fontSize=11;entryX=0;entryY=0.582;entryDx=0;entryDy=0;entryPerimeter=0;" parent="1" target="4" edge="1"><mxGeometry relative="1" as="geometry"><mxPoint x="250" y="120" as="sourcePoint"/><mxPoint x="330" y="330" as="targetPoint"/><Array as="points"><mxPoint x="290" y="120"/><mxPoint x="290" y="427"/></Array></mxGeometry></mxCell><mxCell id="36" value="Many To Many" style="edgeLabel;resizable=0;html=1;align=center;verticalAlign=middle;fontSize=11;" parent="35" connectable="0" vertex="1"><mxGeometry relative="1" as="geometry"/></mxCell><mxCell id="38" value="" style="endArrow=classic;html=1;rounded=0;fontSize=11;entryX=-0.009;entryY=0.625;entryDx=0;entryDy=0;entryPerimeter=0;exitX=1.009;exitY=0.583;exitDx=0;exitDy=0;exitPerimeter=0;" parent="1" target="10" edge="1" source="4"><mxGeometry relative="1" as="geometry"><mxPoint x="540" y="381" as="sourcePoint"/><mxPoint x="680" y="381" as="targetPoint"/></mxGeometry></mxCell><mxCell id="39" value="Many To Many" style="edgeLabel;resizable=0;html=1;align=center;verticalAlign=middle;fontSize=11;" parent="38" connectable="0" vertex="1"><mxGeometry relative="1" as="geometry"/></mxCell><mxCell id="41" value="id: &quot;int&quot;&lt;br&gt;id_page: &quot;int&quot;&lt;br&gt;title: &quot;string&quot;&lt;br&gt;subtitle: &quot;string&quot; NULL&lt;br&gt;description: &quot;text&quot;&lt;br&gt;content: &quot;text&quot;&lt;br&gt;id_image: &quot;string&quot; NULL" style="whiteSpace=wrap;html=1;aspect=fixed;align=left;" vertex="1" parent="1"><mxGeometry x="610" y="40" width="190" height="190" as="geometry"/></mxCell><mxCell id="42" value="&lt;font style=&quot;font-size: 20px&quot;&gt;content&lt;/font&gt;" style="rounded=0;whiteSpace=wrap;html=1;" vertex="1" parent="1"><mxGeometry x="610" y="40" width="190" height="40" as="geometry"/></mxCell><mxCell id="43" value="" style="endArrow=classic;html=1;rounded=0;entryX=1.016;entryY=0.333;entryDx=0;entryDy=0;entryPerimeter=0;" edge="1" parent="1" target="4"><mxGeometry relative="1" as="geometry"><mxPoint x="610" y="150" as="sourcePoint"/><mxPoint x="530" y="280" as="targetPoint"/><Array as="points"><mxPoint x="580" y="150"/><mxPoint x="580" y="378"/></Array></mxGeometry></mxCell><mxCell id="44" value="Many To Many" style="edgeLabel;resizable=0;html=1;align=center;verticalAlign=middle;" connectable="0" vertex="1" parent="43"><mxGeometry relative="1" as="geometry"/></mxCell></root></mxGraphModel></diagram></mxfile>